<svg xmlns="http://www.w3.org/2000/svg" width="30" height="30" viewBox="0 0 30 30"><g><g><path d="M22.617 11.132a1.172 1.172 0 1 1 0 2.344 1.172 1.172 0 0 1 0-2.344zM30 7.03v6.68a1.172 1.172 0 1 1-2.344 0V7.03a2.347 2.347 0 0 0-2.344-2.344H23.79V5.86a1.171 1.171 0 1 1-2.344 0V4.686h-5.332V5.86a1.171 1.171 0 1 1-2.343 0V4.686H8.496V5.86a1.171 1.171 0 1 1-2.344 0V4.686H4.688A2.347 2.347 0 0 0 2.344 7.03v18.282a2.347 2.347 0 0 0 2.344 2.343h8.964a1.172 1.172 0 0 1 0 2.344H4.688A4.693 4.693 0 0 1 0 25.312V7.03a4.692 4.692 0 0 1 4.688-4.687h1.464V1.171a1.171 1.171 0 1 1 2.344 0v1.172h5.274V1.171a1.171 1.171 0 1 1 2.343 0v1.172h5.332V1.171a1.171 1.171 0 1 1 2.344 0v1.172h1.524A4.692 4.692 0 0 1 30 7.03zm0 15.88c0 3.909-3.18 7.09-7.09 7.09-3.91 0-7.09-3.181-7.09-7.09 0-3.91 3.18-7.09 7.09-7.09 3.91 0 7.09 3.18 7.09 7.09zm-2.344 0a4.752 4.752 0 0 0-4.746-4.747 4.752 4.752 0 0 0-4.746 4.747 4.751 4.751 0 0 0 4.746 4.745 4.751 4.751 0 0 0 4.746-4.745zm-1.875 0c0 .647-.524 1.171-1.172 1.171H22.91a1.172 1.172 0 0 1-1.172-1.171v-2.403a1.172 1.172 0 0 1 2.344 0v1.23h.527c.648 0 1.172.525 1.172 1.173zM17.52 11.132a1.172 1.172 0 1 1 0 2.344 1.172 1.172 0 0 1 0-2.344zm-5.098 5.098a1.171 1.171 0 1 1 0 2.343 1.171 1.171 0 0 1 0-2.343zm-5.098-5.098a1.172 1.172 0 1 1 0 2.344 1.172 1.172 0 0 1 0-2.344zm0 5.098a1.171 1.171 0 1 1 .001 2.343 1.171 1.171 0 0 1 0-2.343zm0 5.097a1.172 1.172 0 1 1 0 2.344 1.172 1.172 0 0 1 0-2.344zm5.098 0a1.172 1.172 0 1 1 0 2.344 1.172 1.172 0 0 1 0-2.344zm0-10.195a1.172 1.172 0 1 1 0 2.344 1.172 1.172 0 0 1 0-2.344z"/><path fill="#6464b6" d="M22.617 11.132a1.172 1.172 0 1 1 0 2.344 1.172 1.172 0 0 1 0-2.344zM30 7.03v6.68a1.172 1.172 0 1 1-2.344 0V7.03a2.347 2.347 0 0 0-2.344-2.344H23.79V5.86a1.171 1.171 0 1 1-2.344 0V4.686h-5.332V5.86a1.171 1.171 0 1 1-2.343 0V4.686H8.496V5.86a1.171 1.171 0 1 1-2.344 0V4.686H4.688A2.347 2.347 0 0 0 2.344 7.03v18.282a2.347 2.347 0 0 0 2.344 2.343h8.964a1.172 1.172 0 0 1 0 2.344H4.688A4.693 4.693 0 0 1 0 25.312V7.03a4.692 4.692 0 0 1 4.688-4.687h1.464V1.171a1.171 1.171 0 1 1 2.344 0v1.172h5.274V1.171a1.171 1.171 0 1 1 2.343 0v1.172h5.332V1.171a1.171 1.171 0 1 1 2.344 0v1.172h1.524A4.692 4.692 0 0 1 30 7.03zm0 15.88c0 3.909-3.18 7.09-7.09 7.09-3.91 0-7.09-3.181-7.09-7.09 0-3.91 3.18-7.09 7.09-7.09 3.91 0 7.09 3.18 7.09 7.09zm-2.344 0a4.752 4.752 0 0 0-4.746-4.747 4.752 4.752 0 0 0-4.746 4.747 4.751 4.751 0 0 0 4.746 4.745 4.751 4.751 0 0 0 4.746-4.745zm-1.875 0c0 .647-.524 1.171-1.172 1.171H22.91a1.172 1.172 0 0 1-1.172-1.171v-2.403a1.172 1.172 0 0 1 2.344 0v1.23h.527c.648 0 1.172.525 1.172 1.173zM17.52 11.132a1.172 1.172 0 1 1 0 2.344 1.172 1.172 0 0 1 0-2.344zm-5.098 5.098a1.171 1.171 0 1 1 0 2.343 1.171 1.171 0 0 1 0-2.343zm-5.098-5.098a1.172 1.172 0 1 1 0 2.344 1.172 1.172 0 0 1 0-2.344zm0 5.098a1.171 1.171 0 1 1 .001 2.343 1.171 1.171 0 0 1 0-2.343zm0 5.097a1.172 1.172 0 1 1 0 2.344 1.172 1.172 0 0 1 0-2.344zm5.098 0a1.172 1.172 0 1 1 0 2.344 1.172 1.172 0 0 1 0-2.344zm0-10.195a1.172 1.172 0 1 1 0 2.344 1.172 1.172 0 0 1 0-2.344z"/></g></g></svg>