<svg xmlns="http://www.w3.org/2000/svg" width="31" height="31" viewBox="0 0 31 31"><g><g><path d="M0 5.206c0-.668.542-1.21 1.21-1.21h14.108a1.211 1.211 0 1 1 0 2.421H1.211C.542 6.417 0 5.875 0 5.206zM18.951 6.72V3.632a3.637 3.637 0 0 1 3.633-3.633 3.637 3.637 0 0 1 3.633 3.633v.363h3.572a1.211 1.211 0 1 1 0 2.422h-3.572v.303a3.637 3.637 0 0 1-3.633 3.633A3.637 3.637 0 0 1 18.95 6.72zm2.422 0c0 .667.543 1.21 1.21 1.21.669 0 1.212-.543 1.212-1.21V3.632c0-.668-.543-1.211-1.211-1.211s-1.211.543-1.211 1.21zm-4.847 19.133a1.21 1.21 0 0 1-1.21 1.21H1.21a1.21 1.21 0 1 1 0-2.422h14.105c.668 0 1.21.543 1.21 1.212zM0 15.492c0-.67.542-1.21 1.21-1.21h3.452a1.21 1.21 0 1 1 0 2.42H1.211C.542 16.703 0 16.16 0 15.493zm31 0c0 .668-.542 1.21-1.211 1.21H15.561v.31a3.637 3.637 0 0 1-3.633 3.633 3.637 3.637 0 0 1-3.633-3.632v-3.148a3.637 3.637 0 0 1 3.633-3.634 3.637 3.637 0 0 1 3.633 3.634v.416h14.228A1.21 1.21 0 0 1 31 15.491zm-17.861-1.627a1.212 1.212 0 0 0-2.422 0v3.148a1.212 1.212 0 0 0 2.422 0zM31 25.853c0 .668-.542 1.21-1.211 1.21h-3.575v.303A3.637 3.637 0 0 1 22.581 31a3.637 3.637 0 0 1-3.633-3.633V24.28a3.637 3.637 0 0 1 3.633-3.634 3.637 3.637 0 0 1 3.633 3.634v.362h3.575c.669 0 1.211.543 1.211 1.212zm-7.208-1.574a1.212 1.212 0 0 0-2.422 0v3.087c0 .668.543 1.211 1.211 1.211s1.211-.543 1.211-1.21z"/><path fill="#6464b6" d="M0 5.206c0-.668.542-1.21 1.21-1.21h14.108a1.211 1.211 0 1 1 0 2.421H1.211C.542 6.417 0 5.875 0 5.206zM18.951 6.72V3.632a3.637 3.637 0 0 1 3.633-3.633 3.637 3.637 0 0 1 3.633 3.633v.363h3.572a1.211 1.211 0 1 1 0 2.422h-3.572v.303a3.637 3.637 0 0 1-3.633 3.633A3.637 3.637 0 0 1 18.95 6.72zm2.422 0c0 .667.543 1.21 1.21 1.21.669 0 1.212-.543 1.212-1.21V3.632c0-.668-.543-1.211-1.211-1.211s-1.211.543-1.211 1.21zm-4.847 19.133a1.21 1.21 0 0 1-1.21 1.21H1.21a1.21 1.21 0 1 1 0-2.422h14.105c.668 0 1.21.543 1.21 1.212zM0 15.492c0-.67.542-1.21 1.21-1.21h3.452a1.21 1.21 0 1 1 0 2.42H1.211C.542 16.703 0 16.16 0 15.493zm31 0c0 .668-.542 1.21-1.211 1.21H15.561v.31a3.637 3.637 0 0 1-3.633 3.633 3.637 3.637 0 0 1-3.633-3.632v-3.148a3.637 3.637 0 0 1 3.633-3.634 3.637 3.637 0 0 1 3.633 3.634v.416h14.228A1.21 1.21 0 0 1 31 15.491zm-17.861-1.627a1.212 1.212 0 0 0-2.422 0v3.148a1.212 1.212 0 0 0 2.422 0zM31 25.853c0 .668-.542 1.21-1.211 1.21h-3.575v.303A3.637 3.637 0 0 1 22.581 31a3.637 3.637 0 0 1-3.633-3.633V24.28a3.637 3.637 0 0 1 3.633-3.634 3.637 3.637 0 0 1 3.633 3.634v.362h3.575c.669 0 1.211.543 1.211 1.212zm-7.208-1.574a1.212 1.212 0 0 0-2.422 0v3.087c0 .668.543 1.211 1.211 1.211s1.211-.543 1.211-1.21z"/></g></g></svg>