<svg id="Capa_1" enable-background="new 0 0 512 512" height="512" viewBox="0 0 512 512" width="512" xmlns="http://www.w3.org/2000/svg"><g><path fill="#6464b6" d="m346.143 274.143c7.81-7.811 7.81-20.474 0-28.284l-34.143-34.142v-71.716c0-11.046-8.954-20-20-20s-20 8.954-20 20v80c0 5.304 2.107 10.392 5.857 14.142l40 40c3.905 3.905 9.024 5.858 14.143 5.858s10.237-1.953 14.143-5.858z"/><path fill="#6464b6" d="m156.696 129.019-28.283-28.283c-23.396-23.393-61.46-23.392-84.852 0l-14.179 14.179c-32.752 32.751-38.804 83.235-14.717 122.767 22.876 37.542 61.18 93.328 113.748 145.897 52.587 52.586 108.389 90.896 145.939 113.774 39.359 23.979 89.852 18.133 122.725-14.742l14.18-14.179c23.394-23.394 23.394-61.459 0-84.853l-28.285-28.284c-13.704-13.704-42.444-32.25-80.966-2.476-8.353 6.455-18.938 6.883-26.343 1.069-22.365-17.565-43.359-36.125-62.396-55.162-19.091-19.091-37.701-40.15-55.314-62.591-5.785-7.372-5.446-17.839.845-26.047 29.811-38.897 11.478-67.488-2.102-81.069zm28.286 197.992c20.162 20.161 42.359 39.788 65.976 58.335 21.72 17.058 52.77 16.696 75.509-.878 13.962-10.79 20.225-8.885 28.221-.889l28.284 28.284c7.799 7.798 7.799 20.486.001 28.284l-14.18 14.179c-19.655 19.657-49.933 23.304-73.629 8.867-35.687-21.742-88.678-58.109-138.466-107.898-49.773-49.772-86.136-102.749-107.875-138.427-14.451-23.718-10.814-54.012 8.843-73.669l14.18-14.179c3.898-3.899 9.02-5.848 14.142-5.848 5.121 0 10.243 1.949 14.142 5.848l28.282 28.283h.001c6.776 6.777 10.646 12.784-1.363 28.452-17.305 22.579-17.535 53.451-.562 75.076 18.595 23.696 38.276 45.961 58.494 66.18z"/><path fill="#6464b6" d="m292 .001c-51.76 0-102.044 18.329-141.588 51.611-8.451 7.112-9.536 19.729-2.424 28.18 7.113 8.452 19.73 9.536 28.181 2.423 32.345-27.222 73.481-42.214 115.831-42.214 99.252 0 180 80.748 180 180 0 42.357-14.997 83.499-42.229 115.847-7.113 8.45-6.029 21.067 2.421 28.181 8.505 7.16 21.113 5.975 28.181-2.42 33.292-39.548 51.627-89.839 51.627-141.608 0-58.764-22.884-114.011-64.437-155.563-41.552-41.553-96.798-64.437-155.563-64.437z"/></g></svg>