<svg id="Capa_1" enable-background="new 0 0 512 512" height="512" viewBox="0 0 512 512" width="512" xmlns="http://www.w3.org/2000/svg"><g><path fill="#6464b6" d="m216.507 152.149-75.115-45.23c-9.986-6.013-22.738 1.198-22.738 12.851v90.181c0 11.668 12.761 18.82 22.702 12.871l75.115-44.95c9.675-5.791 9.755-19.869.036-25.723zm-67.853 31.344v-37.182l30.97 18.648z"/><path fill="#6464b6" d="m504.498 397.267-22.686-13.098c.364-5.327.33-10.739-.149-16.252l22.835-13.184c7.174-4.142 9.632-13.315 5.49-20.49l-30.303-52.486c-4.146-7.183-13.332-9.625-20.49-5.49l-23.579 13.613c-4.234-2.855-8.659-5.392-13.256-7.595v-27.285c0-8.284-6.716-15-15-15h-60.606c-8.284 0-15 6.716-15 15v27.285c-4.596 2.203-9.022 4.739-13.256 7.595-23.95-13.596-23.891-14.337-27.633-15.219l34.431-59.637c4.14-7.171 1.683-16.348-5.491-20.49l-31.659-18.278c.662-7.364.686-14.877 0-22.51l31.659-18.278c7.171-4.14 9.633-13.317 5.491-20.49l-37.5-64.953c-4.139-7.17-13.317-9.632-20.49-5.49l-31.7 18.303c-6.147-4.346-12.646-8.11-19.453-11.27v-36.568c0-8.284-6.716-15-15-15h-74.999c-8.284 0-15 6.716-15 15v36.566c-6.807 3.159-13.306 6.924-19.453 11.27l-31.7-18.303c-7.17-4.139-16.349-1.684-20.49 5.49l-37.5 64.953c-4.14 7.17-1.683 16.348 5.49 20.49l31.659 18.278c-.664 7.379-.685 14.892 0 22.51l-31.659 18.279c-7.17 4.14-9.632 13.317-5.49 20.49l37.5 64.953c4.14 7.172 13.317 9.629 20.49 5.49l31.7-18.303c6.147 4.346 12.646 8.11 19.453 11.27v36.567c0 8.284 6.716 15 15 15h74.999c8.284 0 15-6.716 15-15v-36.566c6.807-3.159 13.306-6.924 19.453-11.27 32.941 18.776 31.984 19.02 35.755 19.909l-27.233 47.17c-4.142 7.175-1.684 16.349 5.49 20.49l22.835 13.184c-.463 5.33-.526 10.742-.149 16.252l-22.686 13.098c-7.174 4.142-9.632 13.315-5.49 20.49l30.303 52.486c4.146 7.183 13.332 9.624 20.49 5.49l21.993-12.698c4.707 3.303 9.664 6.201 14.841 8.682v25.283c0 8.284 6.716 15 15 15h60.606c8.284 0 15-6.716 15-15v-25.283c5.177-2.48 10.133-5.379 14.841-8.682l21.994 12.698c7.167 4.14 16.349 1.684 20.49-5.49l30.303-52.486c4.141-7.175 1.683-16.349-5.491-20.49zm-262.589-161.105c-5.471-3.159-12.332-2.552-17.162 1.517-8.588 7.232-18.252 12.83-28.721 16.639-5.927 2.156-9.872 7.79-9.872 14.097v31.585h-45v-31.586c0-6.307-3.945-11.94-9.872-14.097-10.469-3.809-20.133-9.406-28.721-16.639-4.832-4.067-11.692-4.675-17.162-1.517l-27.408 15.824-22.5-38.973 27.349-15.789c5.464-3.154 8.37-9.392 7.27-15.604-1.94-10.956-1.942-22.273 0-33.24 1.1-6.213-1.806-12.45-7.27-15.604l-27.349-15.789 22.5-38.973 27.408 15.824c5.47 3.157 12.331 2.551 17.162-1.517 8.588-7.232 18.252-12.83 28.721-16.639 5.927-2.156 9.872-7.79 9.872-14.097v-31.584h45v31.586c0 6.307 3.945 11.94 9.872 14.097 10.469 3.809 20.133 9.406 28.721 16.639 4.832 4.068 11.692 4.675 17.162 1.517l27.408-15.824 22.5 38.972-27.349 15.79c-5.465 3.154-8.371 9.393-7.27 15.605 1.94 10.955 1.942 22.273 0 33.238-1.101 6.213 1.806 12.451 7.27 15.605l27.349 15.79-22.5 38.972zm208.795 126.639c1.667 8.666 1.835 17.768.275 26.894-1.059 6.188 1.849 12.381 7.285 15.52l18.244 10.533-15.303 26.506-17.748-10.247c-5.54-3.199-12.497-2.531-17.328 1.659-7.061 6.125-15.079 10.822-23.831 13.961-5.96 2.137-9.936 7.787-9.936 14.119v20.254h-30.606v-20.255c0-6.332-3.976-11.982-9.936-14.119-8.752-3.139-16.77-7.836-23.831-13.961-4.832-4.192-11.791-4.858-17.328-1.659l-17.747 10.247-15.303-26.506 18.244-10.533c5.436-3.139 8.344-9.331 7.285-15.52-1.494-8.737-1.467-17.839.275-26.894 1.208-6.276-1.695-12.629-7.23-15.824l-18.574-10.724 15.303-26.506 19.152 11.058c5.442 3.143 12.267 2.56 17.097-1.462 6.781-5.645 14.405-10.008 22.659-12.969 5.96-2.137 9.936-7.787 9.936-14.119v-22.254h30.606v22.255c0 6.332 3.976 11.982 9.936 14.119 8.255 2.961 15.878 7.323 22.659 12.969 4.829 4.021 11.655 4.604 17.097 1.462l19.152-11.058 15.303 26.506-18.574 10.724c-5.539 3.195-8.441 9.547-7.233 15.824z"/><path fill="#6464b6" d="m377.058 332c-24.813 0-45 20.187-45 45s20.187 45 45 45 45-20.187 45-45-20.187-45-45-45zm0 60c-8.271 0-15-6.729-15-15s6.729-15 15-15 15 6.729 15 15-6.729 15-15 15z"/></g></svg>