<svg id="Capa_1" enable-background="new 0 0 512 512" height="512" viewBox="0 0 512 512" width="512" xmlns="http://www.w3.org/2000/svg"><g><circle fill="#6464b6" cx="176" cy="292" r="20"/><circle fill="#6464b6" cx="256" cy="292" r="20"/><circle fill="#6464b6" cx="336" cy="292" r="20"/><path fill="#6464b6" d="m60 432c33.084 0 60-26.916 60-60v-80c0-33.084-26.916-60-60-60s-60 26.916-60 60v80c0 33.084 26.916 60 60 60zm-20-140c0-11.028 8.972-20 20-20s20 8.972 20 20v80c0 11.028-8.972 20-20 20s-20-8.972-20-20z"/><path fill="#6464b6" d="m416 206.853c11.046 0 20-8.954 20-20v-6.853c0-99.252-80.748-180-180-180s-180 80.748-180 180v6.854c0 11.046 8.954 20 20 20s20-8.954 20-20v-6.854c0-77.196 62.804-140 140-140s140 62.804 140 140v6.854c0 11.045 8.954 19.999 20 19.999z"/><path fill="#6464b6" d="m256 512h76c49.667 0 90.986-36.398 98.701-83.919 6.624 2.524 13.8 3.919 21.299 3.919 33.084 0 60-26.916 60-60v-80c0-33.084-26.916-60-60-60s-60 26.916-60 60v120c0 33.084-26.916 60-60 60h-19.44c2.22-6.26 3.44-12.989 3.44-20 0-33.084-26.916-60-60-60s-60 26.916-60 60 26.916 60 60 60zm176-220c0-11.028 8.972-20 20-20s20 8.972 20 20v80c0 11.028-8.972 20-20 20s-20-8.972-20-20zm-176 140c11.028 0 20 8.972 20 20s-8.972 20-20 20-20-8.972-20-20 8.972-20 20-20z"/></g></svg>