<svg xmlns="http://www.w3.org/2000/svg" width="21" height="17" viewBox="0 0 21 17"><g><g><path d="M20.259 7.712h-3.46a.738.738 0 0 0-.66.43l-2.925 6.088L8.604.521a.748.748 0 0 0-.65-.52.73.73 0 0 0-.708.427l-3.5 7.284H.741c-.41 0-.741.352-.741.788 0 .434.332.786.741.786h3.46a.737.737 0 0 0 .66-.43l2.925-6.088 4.61 13.71a.75.75 0 0 0 .698.522.739.739 0 0 0 .66-.43l3.5-7.284h3.005c.41 0 .74-.352.74-.787 0-.435-.331-.787-.74-.787z"/><path fill="#6464b6" d="M20.259 7.712h-3.46a.738.738 0 0 0-.66.43l-2.925 6.088L8.604.521a.748.748 0 0 0-.65-.52.73.73 0 0 0-.708.427l-3.5 7.284H.741c-.41 0-.741.352-.741.788 0 .434.332.786.741.786h3.46a.737.737 0 0 0 .66-.43l2.925-6.088 4.61 13.71a.75.75 0 0 0 .698.522.739.739 0 0 0 .66-.43l3.5-7.284h3.005c.41 0 .74-.352.74-.787 0-.435-.331-.787-.74-.787z"/></g></g></svg>