<svg id="Capa_1" enable-background="new 0 0 512 512" height="512" viewBox="0 0 512 512" width="512" xmlns="http://www.w3.org/2000/svg"><g><path fill="#ffffff" d="m241 45v15h-15c-8.284 0-15 6.716-15 15s6.716 15 15 15h15v15c0 8.284 6.716 15 15 15s15-6.716 15-15v-15h15c8.284 0 15-6.716 15-15s-6.716-15-15-15h-15v-15c0-8.284-6.716-15-15-15s-15 6.716-15 15z"/><path fill="#ffffff" d="m482.595 441.534c-11.707-46.828-53.596-79.534-101.865-79.534h-64.73v-16.243c35.84-20.952 60-60.062 60-104.757 0-67.864 0-128.057 0-196 0-24.813-20.187-45-45-45h-150c-24.813 0-45 20.187-45 45v196c0 44.695 24.16 83.805 60 104.757v16.243h-64.73c-48.269 0-90.157 32.706-101.864 79.534l-12.957 51.828c-1.121 4.481-.114 9.229 2.729 12.869 2.842 3.641 7.203 5.769 11.822 5.769h450c4.619 0 8.98-2.128 11.823-5.769s3.85-8.388 2.729-12.869zm-286.595 40.466h-145.788l8.297-33.19c8.363-33.449 38.283-56.81 72.761-56.81h64.73zm-30-437c0-8.271 6.729-15 15-15h150c8.271 0 15 6.729 15 15v75h-180c0-7.424 0-66.539 0-75zm0 105h180v89.314c-10.843-2.397-20.788-7.047-31.134-11.896-16.416-7.695-35.022-16.418-58.866-16.418s-42.45 8.723-58.866 16.418c-10.346 4.85-20.291 9.499-31.134 11.896zm4.379 119.043c15.002-3.004 27.815-8.989 39.489-14.461 14.899-6.985 28.971-13.582 46.132-13.582s31.233 6.597 46.133 13.582c11.673 5.472 24.486 11.458 39.489 14.461-11.721 36.497-45.67 62.957-85.622 62.957s-73.901-26.46-85.621-62.957zm115.621 89.128v18.829c0 16.542-13.458 30-30 30s-30-13.458-30-30v-18.829c9.592 2.499 19.645 3.829 30 3.829s20.408-1.33 30-3.829zm-60 123.829v-53.072c8.833 5.123 19.075 8.072 30 8.072 27.906 0 51.424-19.151 58.101-45h66.629c34.478 0 64.397 23.361 72.761 56.81l8.297 33.19z"/></g></svg>