<svg xmlns="http://www.w3.org/2000/svg" width="21" height="21" viewBox="0 0 21 21"><defs><clipPath id="ubwba"><path fill="#fff" d="M2 10.498a8.5 8.5 0 1 1 17 0 8.5 8.5 0 0 1-8.5 8.499 8.5 8.5 0 0 1-8.5-8.5z"/></clipPath></defs><g><g><path fill="transparent" d="M2 10.498a8.5 8.5 0 1 1 17 0 8.5 8.5 0 0 1-8.5 8.499 8.5 8.5 0 0 1-8.5-8.5z"/><path fill="none" stroke="#b0aff5" stroke-linecap="round" stroke-linejoin="round" stroke-miterlimit="20" stroke-width="4" d="M2 10.498a8.5 8.5 0 1 1 17 0 8.5 8.5 0 0 1-8.5 8.499 8.5 8.5 0 0 1-8.5-8.5z" clip-path="url(&quot;#ubwba&quot;)"/></g><g><path fill="#b2b0f6" d="M6 10.498a4.5 4.5 0 1 1 9-.002 4.5 4.5 0 0 1-9 .002z"/></g></g></svg>