<svg xmlns="http://www.w3.org/2000/svg" width="30" height="22" viewBox="0 0 30 22"><g><g><path fill="#007ac2" d="M28.846 6.947H30v13.246C30 21.19 29.224 22 28.27 22H1.73C.778 22 0 21.19 0 20.193V6.947h1.155v13.246a.59.59 0 0 0 .576.603h26.538a.591.591 0 0 0 .577-.603zm-8.242 3.501L15.34 16.04a.522.522 0 0 1-.782-.01.597.597 0 0 1-.09-.131.551.551 0 0 1-.17-.126l-4.906-5.329a.639.639 0 0 1 0-.849.523.523 0 0 1 .782 0l4.272 4.64V.6c0-.332.248-.601.554-.601.305 0 .552.27.552.601v13.534l4.277-4.545a.522.522 0 0 1 .782.01.628.628 0 0 1 .157.42.628.628 0 0 1-.165.43z"/><path fill="#fff" d="M28.846 6.947H30v13.246C30 21.19 29.224 22 28.27 22H1.73C.778 22 0 21.19 0 20.193V6.947h1.155v13.246a.59.59 0 0 0 .576.603h26.538a.591.591 0 0 0 .577-.603zm-8.242 3.501L15.34 16.04a.522.522 0 0 1-.782-.01.597.597 0 0 1-.09-.131.551.551 0 0 1-.17-.126l-4.906-5.329a.639.639 0 0 1 0-.849.523.523 0 0 1 .782 0l4.272 4.64V.6c0-.332.248-.601.554-.601.305 0 .552.27.552.601v13.534l4.277-4.545a.522.522 0 0 1 .782.01.628.628 0 0 1 .157.42.628.628 0 0 1-.165.43z"/></g></g></svg>