<svg xmlns="http://www.w3.org/2000/svg" width="14" height="14" viewBox="0 0 14 14"><g><g><path fill="#00669d" d="M14 4.16c0 1.44-.363 2.854-1.08 4.204-.566 1.069-1.354 2.098-2.341 3.06-1.671 1.628-3.321 2.493-3.39 2.529a.414.414 0 0 1-.19.047.414.414 0 0 1-.187-.047c-.07-.036-1.72-.901-3.391-2.53-.987-.961-1.775-1.99-2.342-3.06C.363 7.014 0 5.6 0 4.16 0 1.865 1.824 0 4.065 0c.647 0 1.29.16 1.86.46.399.211.764.49 1.075.822A4.108 4.108 0 0 1 8.074.46 3.996 3.996 0 0 1 9.934 0C12.177 0 14 1.865 14 4.16zm-.833 0c0-1.824-1.45-3.308-3.232-3.308-1.036 0-1.983.49-2.6 1.342A.414.414 0 0 1 7 2.368a.413.413 0 0 1-.335-.174 3.184 3.184 0 0 0-2.6-1.342C2.283.852.833 2.336.833 4.159c0 2.366 1.064 4.603 3.163 6.648A15.705 15.705 0 0 0 7 13.087c.471-.27 1.754-1.059 3.02-2.297 2.088-2.04 3.147-4.271 3.147-6.63zm-3.059 1.416L6.936 8.488a.414.414 0 0 1-.316.107.415.415 0 0 1-.292-.164L5.015 6.696a.433.433 0 0 1 .074-.599.41.41 0 0 1 .585.076l1.039 1.374 2.84-2.606a.411.411 0 0 1 .587.034.433.433 0 0 1-.032.601z"/></g></g></svg>