<?xml version="1.0" encoding="iso-8859-1"?>
<!-- Generator: Adobe Illustrator 19.0.0, SVG Export Plug-In . SVG Version: 6.00 Build 0)  -->
<svg version="1.1" id="Capa_1" xmlns="http://www.w3.org/2000/svg" xmlns:xlink="http://www.w3.org/1999/xlink" x="0px" y="0px"
	 viewBox="0 0 512 512" style="enable-background:new 0 0 512 512;" xml:space="preserve">
<g>
	<g>
		<path d="M363.324,5.842c-23.631,0-47.157,5.69-68.031,16.454c-14.567,7.511-27.907,17.508-39.293,29.37
			c-11.386-11.861-24.726-21.858-39.292-29.369c-20.875-10.764-44.4-16.454-68.031-16.454C66.696,5.843,0,72.539,0,154.519
			c0,51.454,13.277,102.005,39.464,150.25c20.73,38.191,49.546,74.985,85.647,109.358c61.109,58.184,121.458,89.096,123.997,90.384
			c2.167,1.098,4.529,1.648,6.892,1.648s4.725-0.55,6.891-1.649c2.54-1.287,62.89-32.2,123.997-90.384
			c36.102-34.373,64.917-71.166,85.647-109.358C498.723,256.524,512,205.972,512,154.519C512,72.539,445.304,5.843,363.324,5.842z
			 M366.462,391.493c-46.3,44.223-93.228,72.421-110.47,82.096c-17.145-9.604-63.627-37.509-109.866-81.534
			c-76.739-73.068-115.65-152.985-115.65-237.536c0-65.175,53.025-118.2,118.201-118.2c37.858,0,72.51,17.488,95.074,47.98
			c2.874,3.884,7.419,6.174,12.249,6.174s9.375-2.291,12.249-6.174c22.563-30.492,57.216-47.981,95.074-47.981
			c65.176,0,118.201,53.025,118.201,118.201C481.524,238.839,442.812,318.569,366.462,391.493z"/>
	</g>
</g>
<g>
	<g>
		<path d="M370.854,183.649c-5.618-6.266-15.253-6.791-21.518-1.173l-103.842,93.1l-37.989-49.069
			c-5.151-6.654-14.722-7.873-21.377-2.721c-6.655,5.151-7.872,14.722-2.721,21.377l48.015,62.019
			c2.59,3.346,6.456,5.465,10.671,5.847c0.461,0.042,0.92,0.063,1.379,0.063c3.737,0,7.364-1.375,10.172-3.892L369.68,205.167
			C375.946,199.548,376.471,189.915,370.854,183.649z"/>
	</g>
</g>
<g>
</g>
<g>
</g>
<g>
</g>
<g>
</g>
<g>
</g>
<g>
</g>
<g>
</g>
<g>
</g>
<g>
</g>
<g>
</g>
<g>
</g>
<g>
</g>
<g>
</g>
<g>
</g>
<g>
</g>
</svg>
