<svg id="Capa_1" enable-background="new 0 0 512 512" height="512" viewBox="0 0 512 512" width="512" xmlns="http://www.w3.org/2000/svg"><g><path fill="#6464b6" d="m196 61c-24.813 0-45 20.187-45 45s20.187 45 45 45 45-20.187 45-45-20.187-45-45-45zm0 60c-8.271 0-15-6.729-15-15s6.729-15 15-15 15 6.729 15 15-6.729 15-15 15z"/><path fill="#6464b6" d="m316 61c-24.813 0-45 20.187-45 45s20.187 45 45 45 45-20.187 45-45-20.187-45-45-45zm0 60c-8.271 0-15-6.729-15-15s6.729-15 15-15 15 6.729 15 15-6.729 15-15 15z"/><path fill="#6464b6" d="m451 181h-30v-181h-330v181h-30v331h390zm-330-151h120v31h30v-31h120v151h-270zm300 452h-330v-271h330z"/><path fill="#6464b6" d="m241 331h30v-30h30v-30h-30v-30h-30v30h-30v30h30z"/><path fill="#6464b6" d="m151 361h210v30h-210z"/><path fill="#6464b6" d="m181 421h150v30h-150z"/></g></svg>