<svg id="Capa_1" enable-background="new 0 0 507.802 507.802" height="512" viewBox="0 0 507.802 507.802" width="512" xmlns="http://www.w3.org/2000/svg"><g id="XMLID_1016_"><path id="XMLID_1035_" fill="#6464b6" d="m452.379 16.173c-21.564-21.564-56.652-21.564-78.217 0l-25.539 25.539-22.089-22.089-71.336 71.336 22.089 22.089-83.03 83.03c-.002.001-.004.003-.005.005l-98.42 98.42 28.502 28.502-23.596 23.596c-5.858 5.857-5.858 15.355 0 21.213 2.929 2.929 6.768 4.394 10.606 4.394s7.678-1.465 10.606-4.394l23.596-23.596 28.502 28.502 181.455-181.455 22.089 22.089 71.336-71.336-22.089-22.089 25.539-25.539c21.565-21.564 21.565-56.652.001-78.217zm-314.121 278.33 72.816-72.816h71.582l-108.607 108.607zm174.398-102.816h-71.582l57.426-57.426 35.791 35.791zm93.847-49.669-28.91 28.91-.876-.876-78.217-78.217-.876-.876 28.91-28.91.876.876 78.217 78.217zm24.663-68.841-25.539 25.539-35.791-35.791 25.539-25.539c9.867-9.867 25.924-9.867 35.791 0 9.867 9.868 9.867 25.923 0 35.791z"/><path id="XMLID_1089_" fill="#6464b6" d="m96.151 402.958-10.318-9.778-10.318 9.778c-8.507 8.063-36.265 36.092-36.265 58.262 0 25.686 20.897 46.583 46.583 46.583s46.582-20.897 46.582-46.583c0-22.171-27.757-50.2-36.264-58.262zm-10.318 74.844c-9.144 0-16.583-7.439-16.583-16.577.089-4.248 7.287-15.081 16.583-25.704 9.296 10.623 16.49 21.453 16.582 25.702-.002 9.142-7.439 16.579-16.582 16.579z"/></g></svg>