<svg id="Capa_1" enable-background="new 0 0 512 512" height="512" viewBox="0 0 512 512" width="512" xmlns="http://www.w3.org/2000/svg"><g><path fill="#6464b6" d="m256 152c-11.046 0-20 8.954-20 20s8.954 20 20 20c55.141 0 100 44.86 100 100s-44.859 100-100 100c-48.291 0-88.698-34.413-97.991-80h97.991c11.046 0 20-8.954 20-20v-40c0-11.046-8.954-20-20-20s-20 8.954-20 20v20h-100c-11.046 0-20 8.954-20 20 0 77.196 62.804 140 140 140s140-62.804 140-140-62.804-140-140-140z"/><path fill="#6464b6" d="m276 72.906v-32.906h20c11.046 0 20-8.954 20-20s-8.954-20-20-20h-80c-11.046 0-20 8.954-20 20s8.954 20 20 20h20v32.906c-111.843 10.014-200 103.921-200 219.094 0 121.587 98.395 220 220 220 121.59 0 220-98.398 220-220 0-115.046-88.041-209.069-200-219.094zm-20 399.094c-99.252 0-180-80.748-180-180s80.748-180 180-180 180 80.748 180 180-80.748 180-180 180z"/><path fill="#6464b6" d="m72.151 112.152c7.811-7.81 7.812-20.474.001-28.284l-28.284-28.285c-7.812-7.811-20.475-7.81-28.284 0-7.811 7.81-7.812 20.474-.001 28.284l28.284 28.285c7.811 7.81 20.474 7.812 28.284 0z"/><path fill="#6464b6" d="m468.132 55.583-28.284 28.285c-7.811 7.811-7.81 20.474.001 28.284 7.81 7.81 20.474 7.811 28.284 0l28.284-28.285c7.811-7.811 7.81-20.474-.001-28.284s-20.474-7.81-28.284 0z"/></g></svg>